<?xml version="1.0" standalone="no"?>
<!DOCTYPE svg PUBLIC "-//W3C//DTD SVG 20010904//EN"
 "http://www.w3.org/TR/2001/REC-SVG-20010904/DTD/svg10.dtd">
<svg version="1.0" xmlns="http://www.w3.org/2000/svg"
 width="600.000000pt" height="600.000000pt" viewBox="0 0 600.000000 600.000000"
 preserveAspectRatio="xMidYMid meet">
<metadata>
Created by potrace 1.11, written by Peter Selinger 2001-2013
</metadata>
<g transform="translate(0.000000,600.000000) scale(0.100000,-0.100000)"
fill="#000000" stroke="none">
<path d="M0 3000 l0 -3000 3000 0 3000 0 0 3000 0 3000 -3000 0 -3000 0 0
-3000z m1762 2692 c86 -42 143 -98 181 -180 l32 -67 3 -2395 c1 -1543 -1
-2418 -7 -2460 -21 -136 -90 -228 -217 -287 -53 -25 -70 -28 -164 -28 -97 0
-110 2 -172 32 -74 35 -137 92 -168 152 -53 104 -50 -36 -50 2552 0 2381 0
2396 20 2455 42 123 118 203 233 245 41 15 73 19 148 16 84 -2 103 -6 161 -35z
m1292 -777 c37 -8 87 -25 110 -39 77 -45 765 -577 1266 -978 195 -156 443
-352 550 -435 228 -177 317 -264 360 -354 60 -127 33 -262 -76 -376 -50 -52
-747 -575 -1646 -1234 -370 -271 -514 -370 -560 -388 -53 -21 -81 -25 -178
-25 -144 -1 -202 20 -289 100 -127 117 -140 273 -37 449 22 37 98 98 439 352
1100 821 1302 975 1302 991 0 17 -220 195 -980 790 -693 542 -713 560 -767
677 -18 40 -23 67 -23 140 0 78 4 97 27 140 26 51 103 131 149 155 89 49 226
62 353 35z"/>
</g>
</svg>
